<?xml version="1.0" encoding="UTF-8" standalone="no"?>
<!-- Created with Inkscape (http://www.inkscape.org/) -->

<svg
   width="475mm"
   height="210.9375mm"
   viewBox="0 0 475 210.9375"
   version="1.1"
   id="svg1"
   inkscape:version="1.3.2 (091e20e, 2023-11-25, custom)"
   sodipodi:docname="baner.svg"
   xmlns:inkscape="http://www.inkscape.org/namespaces/inkscape"
   xmlns:sodipodi="http://sodipodi.sourceforge.net/DTD/sodipodi-0.dtd"
   xmlns:xlink="http://www.w3.org/1999/xlink"
   xmlns="http://www.w3.org/2000/svg"
   xmlns:svg="http://www.w3.org/2000/svg">
  <sodipodi:namedview
     id="namedview1"
     pagecolor="#505050"
     bordercolor="#eeeeee"
     borderopacity="1"
     inkscape:showpageshadow="0"
     inkscape:pageopacity="0"
     inkscape:pagecheckerboard="0"
     inkscape:deskcolor="#505050"
     inkscape:document-units="mm"
     inkscape:zoom="11.313709"
     inkscape:cx="84.631843"
     inkscape:cy="-2.8726213"
     inkscape:window-width="1920"
     inkscape:window-height="1009"
     inkscape:window-x="-8"
     inkscape:window-y="-8"
     inkscape:window-maximized="1"
     inkscape:current-layer="layer1" />
  <defs
     id="defs1">
    <linearGradient
       id="linearGradient4"
       inkscape:collect="always">
      <stop
         style="stop-color:#ed943e;stop-opacity:1;"
         offset="0"
         id="stop4" />
      <stop
         style="stop-color:#eda644;stop-opacity:0;"
         offset="1"
         id="stop5" />
    </linearGradient>
    <linearGradient
       inkscape:collect="always"
       xlink:href="#linearGradient4"
       id="linearGradient5"
       x1="493.86823"
       y1="802.25122"
       x2="532.46216"
       y2="20.606537"
       gradientUnits="userSpaceOnUse"
       gradientTransform="matrix(-0.23723914,0,0,0.18057304,438.31942,15.600309)" />
  </defs>
  <g
     inkscape:label="Warstwa 1"
     inkscape:groupmode="layer"
     id="layer1">
    <path
       id="path3"
       style="fill:#ed7f32;fill-opacity:1;stroke:#44ff00;stroke-width:0"
       d="M 473.02746,-1.6681152 23.805782,-0.54777018 c -0.01726,0.12423803 -0.0913,0.24383999 -0.220658,0.33382975 -0.0034,0.0299117 -0.0039,0.0605871 -0.01499,0.0873332 -0.0038,0.009209 -0.0089,0.017958 -0.01344,0.02687175 -0.0077,0.009345 -0.01384,0.0197132 -0.02274,0.02790527 -0.0258,0.02382003 -0.05837,0.03276881 -0.09198,0.0377238 -0.02089,0.0022039 -0.04205,0.0036598 -0.06305,0.0025838 -0.02515,-5.732e-4 -0.05031,-0.0012938 -0.07545,-0.0020671 -0.03764,-0.0011156 -0.075,-0.0019755 -0.112654,-0.0015503 -0.0326,1.821e-5 -0.06508,-1.2228e-4 -0.09767,0 -3.26e-4,6.936e-5 -7.08e-4,-6.909e-5 -0.001,0 -0.09693,0.02054758 -0.207991,0.02995742 -0.334347,0.02325439 -0.0384,-0.0020369 -0.07682,-0.003475 -0.115238,-0.0051676 -0.0119,3.38e-4 -0.02385,5.7409e-4 -0.03566,0.0015503 -0.01784,0.00117 -0.03536,9.5748e-4 -0.05323,5.1677e-4 -0.02248,-3.5961e-4 -0.04524,-9.6469e-4 -0.0677,-0.0020671 -0.02143,-0.0011208 -0.04266,-0.0029686 -0.06408,-0.0041341 -0.01964,-9.6497e-4 -0.03924,-0.0020405 -0.05891,-0.0015503 -0.02194,1.47e-6 -0.0437,-8.71e-6 -0.06563,0 -0.01569,8.26e-6 -0.03133,-6.267e-5 -0.04703,0 -0.0104,5.462e-5 -0.02113,2.5071e-4 -0.03152,5.1676e-4 -0.01018,2.865e-4 -0.02034,7.042e-4 -0.03049,0.0015503 -0.01415,0.0012581 -0.02817,0.0026772 -0.04237,0.0025838 -0.01346,3.966e-4 -0.02689,0.0010117 -0.04031,0.0020671 -0.01644,0.0013181 -0.03267,0.0031202 -0.04909,0.0046509 -0.0194,0.00231614 -0.03881,0.00553195 -0.0584,0.00620118 -0.0191,6.4251e-4 -0.03826,0.00150934 -0.05736,0.00206705 -0.02362,3.2448e-4 -0.0472,-4.3201e-4 -0.0708,-0.00155029 -0.01752,-8.9354e-4 -0.03515,-0.00190793 -0.05271,-0.00155029 -0.01785,-9.637e-5 -0.03589,-6.0518e-4 -0.05374,-0.00103353 -0.02095,-5.4844e-4 -0.04163,-0.00114338 -0.06253,-0.00258382 -0.02249,-0.00146787 -0.04517,-0.00251372 -0.0677,-0.00310059 -0.02758,-0.0010897 -0.05507,-0.0020692 -0.08268,-0.0015503 -0.02833,1.3457e-4 -0.05643,4.6566e-4 -0.08475,0.0010335 -0.02612,6.159e-4 -0.05245,0.0015296 -0.07855,0.0025838 -0.0256,6.3307e-4 -0.05088,4.6216e-4 -0.07648,5.1676e-4 h -0.0739 c -0.02723,-2.9e-7 -0.05442,1.51e-6 -0.08165,0 -0.02696,-1.83e-6 -0.05364,1.256e-5 -0.08061,0 -0.0293,-1.561e-5 -0.05855,6.71e-5 -0.08785,0 -0.03681,-9.72e-5 -0.07378,-8.646e-5 -0.110588,-5.1676e-4 -0.03992,-5.629e-4 -0.08001,-0.001551 -0.119889,-0.0036174 -0.03928,-0.0023364 -0.07824,-0.006178 -0.117306,-0.01085205 -0.03691,-0.0044885 -0.07378,-0.0086581 -0.110587,-0.01395264 -0.03011,-0.0042806 -0.06056,-0.0073486 -0.09095,-0.008785 -0.0294,-0.0016034 -0.05895,-0.0023434 -0.08837,-0.0036174 -0.02292,-8.631e-4 -0.0458,-3.2064e-4 -0.06873,-0.0010335 -0.02854,-6.499e-4 -0.05732,-0.0013715 -0.08578,-0.0036173 -0.02076,-0.0017923 -0.04128,-0.0041177 -0.06201,-0.0062012 -0.01626,-8.8405e-4 -0.03229,-0.0016934 -0.04858,-0.0010335 -0.01884,2.869e-4 -0.03801,6.724e-4 -0.05684,0.0015503 -0.02673,0.0013071 -0.05299,0.0030962 -0.07958,0.0062012 -0.02131,0.0023207 -0.04278,0.0048705 -0.06408,0.0072347 -0.05,0.0055508 -0.0879,-0.0037798 -0.114205,-0.02067057 -0.432162,0.01494036 -0.864568,0.0072304 -1.296562,-0.0077515 -0.338704,-0.01286819 -0.677144,-0.02605391 -1.015958,-0.03565674 -0.183329,-0.005288 -0.366981,-0.008617 -0.550354,-0.005684 -0.158184,0.00197 -0.315785,0.009674 -0.473873,0.0149862 -0.189029,0.0061656 -0.377659,0.02128488 -0.566374,0.03307291 -0.211751,0.01285836 -0.42407,0.01853159 -0.636137,0.02273763 -0.153823,0.0011365 -0.307709,-0.0025511 -0.46147,-0.0056844 -0.08371,-0.0018017 -0.167428,-0.0029603 -0.251148,-0.0036174 -0.09245,-5.9156e-4 -0.184536,-9.3586e-4 -0.276986,-0.0010335 -0.142464,-1.1331e-4 -0.284884,1.565e-5 -0.427364,0 -0.210504,-5.667e-4 -0.421028,-9.4522e-4 -0.631486,0.0046509 -0.248388,0.011046 -0.497175,0.02319729 -0.745691,0.03152262 -0.196266,0.0062892 -0.392228,0.0089076 -0.588594,0.01085205 -0.171959,0.00148245 -0.344284,0.00176082 -0.516248,0.00206706 -0.174447,2.6495e-4 -0.348519,4.6938e-4 -0.522965,5.1676e-4 -0.157644,8.8527e-4 -0.315274,-0.00521427 -0.47284,-0.00930176 -0.114118,-0.0029497 -0.228449,-0.0046402 -0.3426143,-0.0056844 -0.090815,-7.6916e-4 -0.1815185,-0.0013664 -0.2723348,-0.0015503 -0.1007136,0.0015536 -0.2011892,-0.0014772 -0.3017904,-0.0056844 -0.1360413,-0.004154 -0.272227,-0.0110933 -0.4082438,-0.01601969 -0.1397722,-0.0048611 -0.2797706,-0.0070714 -0.4196126,-0.008785 -0.1177859,-0.0013615 -0.2351576,-0.0017955 -0.35295,-0.0020671 -0.136958,-2.4705e-4 -0.2743879,-4.6751e-4 -0.4113444,-5.1676e-4 -0.1240243,-3.358e-4 -0.2475903,-0.0010362 -0.3715536,0.0031006 -0.102619,0.0020637 -0.2048632,0.01374907 -0.306958,0.0232544 -0.1282069,0.01219329 -0.2568278,0.01572894 -0.3855062,0.01860351 -0.1282637,0.00334392 -0.2567797,-0.0023336 -0.3849894,-0.0056844 -0.1118213,-0.002339 -0.2236489,-0.0035127 -0.33538,-0.008785 -0.073874,-0.006244 -0.1477837,-0.01129302 -0.2216919,-0.01653646 -0.012469,0.0073225 -0.026008,0.01287153 -0.039791,0.01705323 -0.012116,0.0038424 -0.024718,0.0049006 -0.037207,0.0067179 -0.010278,0.0010104 -0.020311,0.0024347 -0.030489,0.0041341 -0.011836,0.0022282 -0.023802,0.0045858 -0.035657,0.00671793 -0.00763,0.00152459 -0.015158,0.0034124 -0.022738,0.00516765 -0.010052,0.00232925 -0.02022,0.003813052 -0.030489,0.004650874 -0.0076,5.5961568e-4 -0.015128,9.1908568e-4 -0.022738,0.001033526 -0.0068,8.326e-5 -0.013354,-1.651e-5 -0.020154,0 -0.00863,2.4118e-4 -0.017258,-0.001362795 -0.025838,-0.002067054 -0.00751,-5.6981568e-4 -0.015218,-3.911474e-4 -0.022738,-5.1676568e-4 -0.00882,-1.2784e-4 -0.017535,-4.836e-4 -0.026355,-5.1676e-4 -0.00846,-2.574e-5 -0.016862,5.22e-6 -0.025322,0 -0.00738,1.8564e-4 -0.01481,-1.1846e-4 -0.022221,-5.1677e-4 -0.00427,0.001147574 -0.00943,0.001550296 -0.014986,0.001550296 h -0.00207 -0.011369 -0.00982 -0.010335 -0.011369 -0.00827 -0.00827 -0.00672 -0.00672 -0.00775 -0.00982 -0.00827 -0.00827 -0.00827 c -0.00303,-5.6344e-7 -0.00575,3.8507e-6 -0.00878,0 -0.00277,-4.12814e-6 -0.00551,2.25842e-5 -0.00827,0 -0.00298,-2.80838e-5 -0.00632,1.3245167e-4 -0.0093,0 -0.00342,-1.7521857e-4 -0.00644,-5.0161568e-4 -0.00982,-0.001033526 -0.00236,-3.6355e-4 -0.00422,-7.6725e-4 -0.00672,-0.00103353 -0.0019,-1.0173e-4 -0.00378,-3.6867e-4 -0.00568,-5.1677e-4 -0.00272,-1.5973e-4 -0.00505,-1.6577e-4 -0.00775,-5.1676e-4 -0.00189,-6.22e-5 -0.00379,-10e-9 -0.00568,0 h -0.00155 -0.00827 -0.00775 c -0.00269,1.21e-6 -0.00506,-5.35e-6 -0.00775,0 -0.00273,6.26e-6 -0.00554,-3.648e-5 -0.00827,0 -0.00205,3.158e-5 -0.00416,3.7989e-4 -0.0062,5.1676e-4 -0.00244,1.7443e-4 -0.00481,1.5488e-4 -0.00723,5.1677e-4 -0.00277,3.1787e-4 -0.00551,5.8008e-4 -0.00827,0.00103353 -0.00447,6.1655979e-4 -0.00892,0.001128799 -0.013436,0.001033526 -0.00345,-7.280453e-5 -0.0069,-2.7792065e-4 -0.010335,-5.1676568e-4 -0.00413,-3.1995e-4 -0.0084,-9.3942e-4 -0.012402,-0.00206706 -0.00241,-5.0877e-4 -0.00314,-6.2266e-4 -0.00568,-0.00103352 -0.00198,-4.0058e-4 -0.00287,-2.7316e-4 -0.00517,-5.1677e-4 -0.00293,-2.0272e-4 -0.00582,-3.5833e-4 -0.00878,-5.1676e-4 -0.00391,0.00135065 -0.00626,0.00366961 -0.011369,0.00413411 -0.00127,1.1520852e-4 -0.00286,-1.2954e-4 -0.00413,0 -0.00379,3.2357808e-4 -0.00757,5.8894313e-4 -0.011369,5.1676568e-4 -0.00304,-2.054427e-5 -0.00576,1.0803851e-4 -0.00879,0 -0.00344,-1.2775163e-4 -0.0069,-2.3964844e-4 -0.010335,-5.1676568e-4 -0.00132,-1.0647e-4 -0.00272,-3.9364e-4 -0.00413,-5.1676e-4 -0.00105,-9.153e-5 -0.00211,-5.036e-5 -0.0031,0 -0.00275,5e-7 -0.00553,-2.8e-6 -0.00827,0 -0.00262,3.63e-6 -0.00513,-1.529e-5 -0.00775,0 -0.00242,1.638e-5 -0.00481,-8.264e-5 -0.00723,0 -0.00177,6.831e-5 -0.00341,3.0943e-4 -0.00517,5.1676e-4 -0.00318,3.5653974e-4 -0.00661,6.1528793e-4 -0.00982,5.1676568e-4 -0.00255,-3.9185e-7 -0.00468,1.97671e-6 -0.00723,0 -0.0026,-2.54049e-6 -0.00567,1.253949e-5 -0.00827,0 -0.00333,-1.754347e-5 -0.00649,6.929962e-5 -0.00982,0 -0.00377,-9.279487e-5 -0.0076,-2.5656643e-4 -0.011369,-5.1676568e-4 -0.0026,-1.8281e-4 -0.00515,-5.948e-4 -0.00775,-5.1676e-4 -0.00269,2.38e-6 -0.00506,-1.254e-5 -0.00775,0 -0.00308,1.566e-5 -0.00622,-6.06e-5 -0.0093,0 -0.00212,5.219e-5 -0.00461,3.0805e-4 -0.00672,5.1676e-4 -0.00327,3.2758401e-4 -0.00653,6.1935523e-4 -0.00982,5.1676568e-4 h -0.0062 -0.00775 -0.012402 c -3.384e-4,2.685668e-5 -7.146e-4,-2.520284e-5 -0.00103,0 C 4.9543699,-3.7902682e-4 4.9525422,-9.8003944e-5 4.9506022,0 4.9411392,4.013549e-4 4.9316502,4.2272384e-4 4.9221802,5.1676432e-4 4.9134942,4.5808946e-4 4.9045052,2.0905481e-4 4.8958252,0 c -0.00158,-6.7672389e-5 -0.0031,-4.1118571e-4 -0.00465,-5.1676432e-4 -0.00153,5.086904e-5 -0.00305,5.387525e-5 -0.00465,0 -0.00529,-5.95361e-6 -0.01073,3.086109e-5 -0.01602,0 -0.00561,-4.075702e-5 -0.011453,-3.6415637e-4 -0.017053,-5.1676568e-4 -0.00771,-2.2632e-4 -0.015058,-3.1677e-4 -0.022738,-0.00103353 -0.00743,-7.3565e-4 -0.014841,-0.00145168 -0.022221,-0.00258382 -0.00238,-3.2083e-4 -0.0048,-8.4764e-4 -0.00723,-0.00103353 h -5.167e-4 c -0.00441,0.00124784 -0.00969,0.00206706 -0.015503,0.00206706 h -0.016536 -0.029972 -0.033073 c -0.00818,1.5109e-4 -0.016148,-4.3867e-4 -0.024288,-0.00103353 -3.38e-4,5.454e-5 -6.995e-4,-4.84e-5 -0.00103,0 -0.00301,4.2257e-4 -0.00528,0.00169091 -0.00878,0.00155029 -0.00602,-2.4086e-4 -0.012097,-4.0668e-4 -0.018087,-0.00103352 -0.00381,-3.8505e-4 -0.00755,-8.0432e-4 -0.011369,-0.00103353 -0.00262,-1.4666e-4 -0.00568,-2.374e-5 -0.00827,-5.1677e-4 h -0.00775 -0.00827 -0.013436 -0.01602 c -0.00551,0.00265981 -0.0098,0.006250201 -0.018604,0.006201174 -0.00153,-8.49207e-6 -0.00312,1.850406e-5 -0.00465,0 C 4.5615894,4.7121281e-4 4.5582207,1.9156639e-4 4.5547607,0 c -0.00399,-2.4497376e-4 -0.00795,-3.3556566e-4 -0.011885,-0.00103353 -0.00216,-3.713e-4 -0.00453,-0.00100048 -0.00672,-0.00103353 -0.0038,-1.865e-4 -0.00759,-7.888e-5 -0.011369,-5.1676e-4 -9.7e-4,-1.7186e-4 4e-5,-4.1899e-4 -0.00207,-5.1677e-4 -0.00254,-1.1938e-4 -0.00521,-2.8077e-4 -0.00775,-5.1676e-4 -0.00382,-3.774e-4 -0.00753,-8.1697e-4 -0.011369,-0.00103353 -0.00605,-2.5314e-4 -0.012027,1.0103e-4 -0.018087,0 -0.00611,1.804e-5 -0.012494,-1.0227e-4 -0.018604,0 -0.00342,7.409e-5 -0.00693,1.5982e-4 -0.010335,5.1677e-4 -0.00427,4.5348e-4 -0.00863,0.00126339 -0.012919,0.00155029 -0.00704,6.3075e-4 -0.014117,9.1589e-4 -0.021187,5.1676e-4 -0.012022,-3.8634e-4 -0.02366,-6.644e-4 -0.035657,-0.00155029 -0.00426,-3.4335e-4 -0.00857,-0.00114183 -0.012919,-0.00155029 C 5.3440907,15.654008 12.048945,93.906671 50.578308,101.04448 c 38.11962,7.0618 61.224562,35.84057 75.946272,50.76279 24.04491,24.37292 125.93295,14.75078 148.46019,18.85621 22.9746,4.1872 77.20287,51.99747 116.77323,36.28048 39.57035,-15.71718 62.45228,-52.79527 73.07564,-93.35141 10.11577,-38.618337 8.19382,-115.2606652 8.19382,-115.2606652 z" />
    <path
       style="fill:url(#linearGradient5);fill-opacity:1;stroke:#44ff00;stroke-width:0"
       d="m 412.70192,9.0866177 c 0,0 1.76129,87.2008103 -53.97804,102.1071023 -55.73932,14.90632 -71.54372,11.93701 -120.25289,4.29275 -48.70916,-7.64428 -52.64636,28.18841 -91.31235,25.89515 C 108.4926,139.08833 100.58345,8.3722276 100.58345,8.3722276 Z"
       id="path4"
       inkscape:label="path4"
       sodipodi:nodetypes="cssscc" />
  </g>
</svg>
